<?xml version="1.0" encoding="UTF-8" standalone="no"?>
<!DOCTYPE svg PUBLIC "-//W3C//DTD SVG 1.1//EN" "http://www.w3.org/Graphics/SVG/1.1/DTD/svg11.dtd">
<svg width="100%" height="100%" viewBox="0 0 1726 439" version="1.1" xmlns="http://www.w3.org/2000/svg" xmlns:xlink="http://www.w3.org/1999/xlink" xml:space="preserve" xmlns:serif="http://www.serif.com/" style="fill-rule:evenodd;clip-rule:evenodd;stroke-linejoin:round;stroke-miterlimit:2;">
    <g transform="matrix(1,0,0,1,-529.151381,-780.849754)">
        <g transform="matrix(1.736328,0,0,1.736328,357.459173,607.227833)">
            <g transform="matrix(0.575928,0,0,0.575928,-351.892013,-319.064117)">
                <path d="M948.708,860.451C951.036,859.111 956.971,855.815 965.6,854.405C971.374,853.462 978.938,852.052 985.27,851.607C999.377,850.618 1012.671,853.857 1014.223,854.494C1018.783,856.364 1022.924,858.971 1023.143,859.06C1024.251,859.51 1028.258,861.137 1035.752,867.098C1050.759,879.036 1060.76,893.42 1086.001,901.744C1092.36,903.84 1108.658,907.677 1122.357,905.701C1132.205,904.281 1132.186,904.241 1138.032,902.628C1138.43,902.519 1142.512,901.393 1143.162,902.155C1144.811,904.088 1140.316,905.767 1139.945,905.905C1134.501,907.938 1106.067,923.441 1073.579,914.864C1042.692,906.71 1026.728,882.198 999.021,878.164C988.953,876.698 981.726,877.293 969.506,882.938C963.848,885.551 953.675,893.838 948.318,905.422C946.929,908.427 939.384,922.053 942.575,948.926C942.861,951.34 946.156,965.337 950.078,975.21C961.759,1004.611 983.776,1035.616 1001.198,1049.323C1003.653,1051.255 1003.473,1051.471 1006.158,1053.024C1007.528,1053.816 1007.424,1053.913 1010.23,1056.378C1011.27,1057.291 1011.608,1057.164 1011.576,1058.526C1011.567,1058.949 1011.177,1060.952 1006.35,1057.741C973.617,1035.967 968.761,1029.332 961.969,1022.619C948.683,1009.488 929.487,985.548 920.792,959.484C910.944,929.965 914.055,912.516 921.235,893.567C926.463,879.767 939.648,865.667 948.708,860.451Z" style="fill:url(#_Linear1);"/>
            </g>
            <g transform="matrix(0.575928,0,0,0.575928,-420.519725,-328.04292)">
                <path d="M1093.973,869.619C1093.964,869.6 1092.036,867.681 1090.664,866.072C1087.906,862.837 1087.614,863.129 1084.924,859.845C1083.122,857.645 1081.061,853.988 1080.761,853.457C1078.431,849.323 1076.543,852.416 1064.747,847.254C1057.702,844.171 1057.374,845.876 1037.415,850.552C1030.192,852.244 1030.409,852.869 1023.306,855.094C1021.321,855.716 1012.895,860.545 1012.835,860.566C1009.75,861.678 1007.61,862.1 1007.61,862.1C1010.253,859.258 1013.419,854.806 1025.279,848.593C1037.01,842.448 1043.612,827.849 1047.265,821.979C1058.29,804.265 1061.409,799.157 1079.568,783.018C1093.386,770.737 1090.758,768.686 1096.941,758.364C1107.395,740.913 1125.593,739.269 1137.673,749.681C1141.474,752.957 1142.58,755.506 1153.777,757.378C1154.896,757.565 1156.03,757.658 1157.149,757.846C1157.368,757.882 1159.608,758.257 1159.783,758.704C1159.818,758.793 1159.316,758.619 1159.322,759.807C1159.325,760.333 1159.791,760.149 1159.794,760.675C1151.802,763.587 1143.251,765.56 1139.29,778.736C1136.567,787.796 1141.631,814.667 1122.424,834.495C1107.724,849.67 1099.645,846.531 1100.486,850.054C1101.324,853.561 1111.331,864.499 1117.958,869.812C1116.025,869.588 1110.273,868.961 1107.733,868.783C1106.726,868.713 1094.287,870.205 1093.973,869.619Z" style="fill:rgb(156,118,61);"/>
            </g>
            <g transform="matrix(0.575928,0,0,0.575928,-351.892013,-319.064117)">
                <path d="M1073.429,879.213C1073.98,879 1083.633,873.419 1095.311,868.889C1108.397,863.812 1123.891,860.048 1129.323,859.365C1139.083,858.136 1174.125,854.238 1200.756,882.782C1221.697,905.226 1219.177,937.436 1218.358,952.526C1217.865,961.599 1213.149,984.484 1212.862,985.535C1208.754,1000.601 1198.81,1043.054 1168.618,1099.751C1168.346,1100.261 1158.327,1117.368 1154.801,1122.269C1144.87,1136.075 1134.017,1147.712 1118.698,1144.251C1100.768,1140.202 1094.951,1107.894 1091.583,1084.366C1091.096,1080.965 1090.965,1081.008 1090.492,1077.583C1089.888,1073.2 1089.931,1073.225 1089.097,1068.875C1087.939,1062.836 1088.571,1062.757 1087.146,1056.792C1086.577,1054.409 1083.127,1034.309 1077.438,1023.55C1071.687,1012.675 1061.561,1010.047 1053.184,1027.294C1039.788,1054.874 1038.974,1095.871 1027.626,1116.122C1024.337,1121.992 1023.032,1123.795 1018.722,1126.872C1012.499,1131.315 1002.165,1133.023 992.507,1122.283C984.358,1113.22 978.468,1097.329 978.488,1096.645C978.525,1095.369 978.67,1095.112 979.925,1095.249C981.625,1095.434 981.848,1097.147 982.139,1097.58C991.65,1111.684 994.347,1113.144 998.788,1116.135C1019.101,1129.812 1025.126,1086.112 1026.933,1077.519C1029.335,1066.101 1036.181,1011.547 1054.587,999.309C1055.454,998.732 1062.918,992.452 1073.769,995.767C1091.713,1001.248 1099.998,1027.721 1105.129,1051.43C1106.618,1058.306 1107.263,1063.423 1108.643,1068.772C1109.741,1073.025 1113.973,1110.584 1120.776,1117.274C1127.767,1124.149 1136.222,1109.468 1140.049,1103.76C1144.329,1097.379 1152.039,1082.265 1155.508,1074.111C1161.017,1061.159 1161.212,1061.282 1166.284,1048.185C1182.555,1006.166 1190.904,963.997 1189.788,940.348C1189.653,937.482 1192.227,886.401 1136.156,876.63C1125.425,874.76 1101.206,873.594 1075.341,882.441C1074.957,882.572 1070.24,884.186 1070.394,881.344C1070.447,880.367 1073.153,879.32 1073.429,879.213Z" style="fill:url(#_Linear2);"/>
            </g>
            <path d="M129.838,210.486C130.45,217.297 133.553,232.466 136.833,242.404C138.161,246.427 138.586,247.473 139.345,250.579C139.739,252.191 139.74,252.194 139.798,252.326C139.954,252.682 140.18,252.486 140.335,252.841C140.628,252.628 140.922,252.415 141.215,252.202C141.419,249.833 141.273,249.843 141.41,247.485C141.699,242.503 142.567,242.429 141.229,237.616C136.075,219.07 149.299,206.959 151.895,204.981C154.762,202.795 159.998,199.16 161.557,199.372C163.13,199.586 161.222,202.321 161.116,207.476C160.998,213.223 161.765,218.79 158.104,227.321C156.072,232.058 151.057,236.618 150.308,237.299C150.18,237.416 150.168,237.379 148.666,238.707C147.675,239.584 147.626,239.497 146.488,240.177C146.254,238.696 146.236,238.707 146.235,238.578C146.218,236.427 150.354,224.169 150.596,223.53C155.35,210.959 156.674,210.342 156.035,209.717C155.893,209.579 155.65,209.827 155.452,209.827C155.191,209.827 154.917,209.611 154.677,209.714C154.478,209.8 154.507,210.119 154.375,210.291C154.204,210.516 153.966,210.478 153.486,211.488C153.325,211.828 150.486,217.01 149.446,219.474C144.561,231.049 143.728,233.931 144.216,240.38C144.208,245.456 143.653,245.408 143.498,250.5C143.222,259.523 143.124,259.695 146.459,266.524C154.379,282.746 163.685,294.258 163.723,294.306C164.916,295.838 165.874,297.92 166.47,297.902C167.195,297.88 167.04,297.6 166.986,296.861C166.976,296.72 167.093,296.582 167.061,296.445C166.578,294.418 166.344,294.499 165.861,292.463C164.651,287.36 165.01,287.22 163.793,285.295C160.005,279.305 157.539,273.226 158.208,263.493C158.934,252.929 167.57,243.308 168.416,243.166C170.221,242.864 169.82,243.778 170.178,245.572C171.563,252.513 179.61,266.17 170.342,282.408C169.987,283.03 169.987,283.017 169.683,283.669C168.968,285.204 167.736,284.724 167.489,284.785C167.554,284.293 167.837,283.846 167.902,283.353C167.927,283.163 167.446,278.896 167.403,278.509C166.084,266.806 168.049,255.37 167.301,254.663C167.178,254.546 166.039,254.618 165.93,254.75C165.856,254.84 164.852,261.498 164.848,261.554C164.216,269.91 164.33,271.633 164.388,272.509C165.085,283.061 165.842,283.671 166.447,285.501C168.247,291.107 169.19,300.306 172.578,304.44C174.941,307.325 185.502,318.363 198.124,326.977C198.194,327.025 200.861,329.077 201.467,329.567C201.857,329.787 202.147,330.159 202.538,330.379C202.676,330.456 203.639,330.997 204.479,330.765C204.97,330.63 205.355,330.22 205.846,330.085C208.816,333.916 210.333,335.56 226.539,342.406C229.553,343.679 240.974,347.21 245.581,348.097C254.767,349.866 255.722,349.433 257.423,349.77C257.602,349.805 257.717,350.005 257.894,350.047C258.256,350.132 258.266,349.995 262.517,350.451C263.801,350.588 264.388,350.184 264.41,351.488C264.433,352.803 263.797,352.334 262.478,352.374C258.906,352.482 258.503,351.931 255.523,351.713C252.049,351.459 246.312,351.292 233.561,348.212C211.979,342.998 208.224,338.112 203.477,337.861C200.454,337.7 192.574,338.175 190.892,339.815C189.352,341.317 189.687,341.599 188.076,343.033C184.789,345.96 177.683,352.771 163.526,352.092C157.318,351.795 150.944,349.691 142.49,350.995C141.818,351.098 141.758,351.326 141.236,350.91C140.574,350.384 140.329,350.361 140.647,349.556C140.705,349.409 143.209,345.781 143.434,345.454C145.658,342.233 151.716,335.005 159.636,331.878C164.56,329.934 174.314,326.719 186.484,332.529C186.737,332.65 189.486,333.962 189.357,334.539C189.081,335.78 179.897,334.805 166.469,338.401C160.872,339.9 156.884,341.52 156.764,341.724C156.537,342.114 157.119,343.188 157.547,343.253C159.233,343.512 158.924,341.53 178.433,339.012C179.126,338.922 188.495,337.417 189.442,337.073C190.056,336.849 189.934,336.378 194.533,335.841C195.761,335.698 199.384,335.656 199.543,335.562C199.891,335.358 200.25,335.026 200.312,334.627C200.321,334.568 194.832,332.016 188.808,327.163C184.935,324.042 184.851,324.168 181.071,320.916C172.828,313.823 171.745,311.331 168.431,309.652C167.062,308.959 157.054,304.392 154.443,303.825C151.835,303.259 148.45,304.91 141.512,305.62C136.325,306.15 128.714,304.496 124.254,301.925C117.324,297.931 117.899,297.173 109.604,290.359C106.899,288.137 104.02,286.751 103.5,286.5C103.283,286.396 102.98,286.381 102.857,286.175C102.741,285.979 102.906,285.722 102.901,285.494C102.896,285.272 102.703,285.018 102.825,284.831C102.861,284.775 110.067,282.334 111.387,282.031C120.278,279.991 130.267,279.289 141.562,286.404C143.383,287.551 146.527,290.624 146.932,291.02C151.077,295.072 152.853,298.339 152.541,298.507C152.164,298.711 151.753,298.141 151.329,298.077C151.084,298.04 150.839,298.272 150.599,298.213C150.08,298.087 150.25,297.703 144.548,295.393C143.037,294.78 135.886,291.278 126.463,288.768C123.873,288.078 119.306,286.618 118.793,288.345C118.743,288.515 119.104,288.523 119.23,288.647C119.387,288.802 119.428,289.094 119.634,289.172C121.293,289.803 121.401,289.329 123.072,289.904C123.277,289.974 123.427,290.159 123.628,290.242C124.163,290.462 124.247,290.199 130.42,292.708C143.556,298.046 146.432,300.139 153.404,300.851C156.314,301.148 164.212,305.345 164.498,305.293C164.916,305.216 165.079,304.578 165.497,304.501C164.945,303.953 160.961,300.477 155.177,291.762C154.636,290.947 149.455,283.14 148.592,281.452C148.135,280.559 148.014,280.634 142.722,270.379C140.647,266.358 138.386,263.997 129.644,257.299C126.76,255.089 125.602,256.942 117.496,253.509C112.655,251.458 109.372,247.872 108.793,247.239C108,246.373 103.829,241.816 101.52,234.494C99.757,228.903 98.731,221.05 98.901,220.646C99.187,219.964 100.432,220.263 100.565,220.294C101.021,220.404 100.808,220.786 105.665,223.181C108.449,224.554 125.856,231.123 129.69,251.561C127.855,251.3 127.853,251.349 127.709,251.279C127.517,251.185 127.451,250.937 127.301,250.784C119.358,242.667 119.218,242.815 111.601,234.379C111.34,234.09 108.41,230.846 108.324,230.781C107.294,230.01 106.826,230.601 106.748,230.7C106.321,231.24 107.246,232.439 107.342,232.562C107.783,233.133 107.757,233.126 108.208,233.665C108.776,234.344 112.986,239.723 116.389,243.592C125.362,253.793 127.993,253.662 128.315,253.807C129.637,254.317 129.657,254.259 130.793,255.107C130.984,255.25 133.071,256.808 133.183,256.9C136.651,259.736 136.365,260.028 136.688,260.244C136.935,260.409 137.27,260.407 137.517,260.572C137.911,260.549 138.305,260.526 138.7,260.503C138.615,260.311 135.134,253.385 132.647,243.456C129.547,231.083 127.392,214.769 126.903,207.485C126.594,202.873 123.428,202.475 119.496,191.502C113.887,175.853 120.984,161.625 122.138,159.313C127.608,148.347 133.803,143.419 138.231,140.01C138.846,139.537 138.726,139.291 139.496,139.261C139.632,139.255 140.585,139.218 140.707,140.447C140.754,140.927 140.502,140.924 140.91,146.475C141.592,155.764 151.018,174.064 138.929,193.76C135.763,198.918 135.47,198.687 133.841,200.865C132.823,202.228 132.905,202.372 132.47,202.407C131.36,202.498 131.328,200.703 131.325,200.527C131.142,190.318 132.027,174.907 133.646,165.512C134.597,159.997 134.346,159.964 134.492,159.501C134.711,158.807 135.118,158.18 135.308,157.478C135.34,157.359 135.679,156.104 134.63,156.097C134.48,156.096 133.587,156.091 133.23,157.345C133.165,157.577 133.227,157.837 133.143,158.064C133.067,158.272 132.843,158.404 132.764,158.611C132.646,158.918 132.948,158.992 131.793,162.602C131.623,163.135 131.736,163.155 130.174,169.408C129.794,170.93 128.346,180.324 128.211,183.49" style="fill:rgb(69,84,70);"/>
            <g transform="matrix(1.197087,0,0,1.197087,-79.877937,-59.358897)">
                <path d="M678.453,194.913C687.864,196.245 700.151,200.23 706.263,215.592C709.677,224.174 711.3,240.456 704.984,252.718C702.319,257.894 699.156,262.555 690.637,266.813C680.639,271.811 670.795,270.589 651.506,270.755C651.262,270.757 648.692,270.779 648.451,270.725C646.976,270.391 647.124,270.015 647.077,268.511C647.018,266.613 647.077,204.096 647.083,198.495C647.085,195.736 646.745,194.722 649.506,194.682C650.626,194.665 650.618,194.689 663.499,194.719C671.077,194.736 671.064,194.522 678.453,194.913Z" style="fill:url(#_Linear3);"/>
            </g>
            <g transform="matrix(1.197087,0,0,1.197087,-79.877937,-59.358897)">
                <path d="M444.463,215.054C442.2,215.145 439.913,215.384 439.254,214.894C437.202,213.367 439.073,212.178 435.499,207.501C432.938,204.15 423.996,200.64 414.755,204.99C408.886,207.752 405.15,219.255 416.563,223.329C429.034,227.779 445.52,228.155 451.255,240.608C453.659,245.828 455.569,259.917 442.4,268.341C433.742,273.88 408.921,276.595 398.65,260.407C396.817,257.518 394.581,251.087 395.835,249.862C396.606,249.108 398.779,249.312 402.544,248.733C405.275,248.312 407.132,247.458 407.909,250.386C409.282,255.558 411.686,260.912 422.544,262.123C430.577,263.018 441.104,259.354 440.296,249.517C438.997,233.698 405.652,243.214 397.728,222.411C395.068,215.427 395.31,196.494 417.542,192.738C418.805,192.525 422.354,191.401 431.4,192.99C433.588,193.374 439.729,195.396 443.397,198.617C450.18,204.574 451.298,212.212 450.705,213.63C450.397,214.367 448.746,214.584 444.463,215.054Z" style="fill:rgb(11,11,11);"/>
            </g>
            <g transform="matrix(1.197087,0,0,1.197087,-79.877937,-59.358897)">
                <path d="M604.469,238.075C609.978,237.508 609.963,237.478 615.49,237.234C618.852,237.086 620.376,237.882 620.253,234.513C620.064,229.321 617.877,227.24 615.318,225.845C614.63,225.47 611.887,223.974 605.564,224.882C604.234,225.073 600.913,226.19 599.48,228.486C598.664,229.794 598.877,229.895 598.088,231.225C597.354,232.463 592.831,231.383 592.527,231.334C587.981,230.598 586.08,230.88 587.234,227.414C592.233,212.385 615.914,213.25 623.642,218.265C626.373,220.038 629.035,221.492 631.216,227.604C632.269,230.558 632.347,230.607 632.309,257.5C632.293,268.801 633.431,269.117 632.266,270.262C631.764,270.756 631.503,271.013 623.485,270.793C619.416,270.682 621.897,266.303 620.939,265.14C619.76,263.708 619.532,264.906 618.296,266.288C611.905,273.436 596.885,274.186 589.433,267.578C582.619,261.536 582.898,250.136 588.46,244.462C593.93,238.881 603.094,238.18 604.469,238.075Z" style="fill:rgb(12,12,11);"/>
            </g>
            <g transform="matrix(1.197087,0,0,1.197087,-79.877937,-59.358897)">
                <path d="M509.941,257.498C510.054,262.512 509.804,262.504 510.074,267.51C510.213,270.069 510.062,270.726 507.505,270.76C499.927,270.861 499.414,270.892 498.768,269.424C498.388,268.56 499.062,264.518 497.519,264.605C496.843,264.643 496.802,265.263 495.57,266.574C490.916,271.527 478.904,275.263 468.424,268.615C467.486,268.02 462.501,264.245 462.067,257.552C461.856,254.302 461.624,248.047 467.342,243.3C472.198,239.268 479.541,237.993 490.494,237.356C496.507,237.006 496.718,237.418 497.529,236.521C498,236.001 499.984,223.143 484.518,224.69C475.567,225.586 477.194,231.154 474.562,231.769C473.832,231.94 465.556,230.779 464.797,230.138C464.027,229.488 464.396,226.721 467.046,223.172C469.732,219.574 473.131,217.171 480.506,215.531C481.548,215.299 494.605,213.254 502.665,219.257C504.936,220.949 507.821,223.087 509.588,230.477C509.889,231.736 509.939,231.741 509.941,257.498Z" style="fill:rgb(12,12,11);"/>
            </g>
            <g transform="matrix(1.197087,0,0,1.197087,-79.877937,-59.358897)">
                <path d="M903.488,215.095C903.971,215.098 908.612,214.696 914.441,216.699C917.4,217.715 918.751,218.618 919.645,219.311C926.409,224.553 926.798,231.05 926.798,236.499C926.8,265.953 926.965,265.941 926.937,268.501C926.921,270.03 927.05,270.41 925.551,270.73C925.063,270.834 917.659,270.751 917.474,270.728C913.696,270.248 916.824,264.475 914.51,264.581C913.776,264.615 913.877,264.825 913.428,265.41C912.128,267.106 912.122,267.1 910.423,268.399C908.494,269.872 903.778,271.914 899.47,272.105C885.487,272.724 879.363,264.129 879.157,256.501C878.854,245.345 886.228,242.147 888.277,241.067C896.763,236.599 912.479,238.009 914.198,237.033C915.291,236.413 915.643,231.428 912.904,228.143C910.172,224.866 906.425,224.656 904.499,224.6C895.023,224.322 893.537,229.702 893.184,230.376C892.129,232.387 891.694,232.15 889.453,231.768C882.427,230.571 882.366,230.544 881.974,230.072C880.774,228.627 883.805,219.809 893.555,216.674C898.806,214.985 900.592,215.173 903.488,215.095Z" style="fill:url(#_Linear4);"/>
            </g>
            <g transform="matrix(1.197087,0,0,1.197087,-79.877937,-59.358897)">
                <path d="M745.517,215.105C760.731,215.839 769.146,226.425 769.393,241.498C769.455,245.264 770.261,246.859 766.502,246.874C732.186,247.01 731.572,246.319 730.976,247.702C730.145,249.629 732.667,262.14 744.498,262.658C745.519,262.703 752.262,262.998 756.046,257.202C756.602,256.35 756.952,254.714 759.55,255.246C767.235,256.82 767.393,256.804 767.614,257.435C768.056,258.703 766.894,260.381 765.564,262.547C764.159,264.835 759.592,269.224 754.55,270.678C748.392,272.454 744.926,272.226 742.526,272.116C740.289,272.013 732.779,270.627 727.74,266.226C718.356,258.03 718.237,246.291 718.945,238.525C719.635,230.961 724.891,219.581 736.432,216.273C740.865,215.002 740.898,215.111 745.517,215.105Z" style="fill:url(#_Linear5);"/>
            </g>
            <g transform="matrix(1.197087,0,0,1.197087,-79.877937,-59.358897)">
                <path d="M664.49,259.898C664.164,259.894 660.829,259.862 660.41,259.71C660.294,259.667 659.66,259.436 659.422,258.523C659.188,257.625 659.322,207.686 659.337,207.478C659.504,205.101 661.403,205.341 663.498,205.328C673.538,205.265 683.697,204.281 691.28,213.68C698.167,222.215 698.72,242.798 691.048,252.164C683.561,261.303 670.49,259.913 664.49,259.898Z" style="fill:rgb(250,247,242);"/>
            </g>
            <g transform="matrix(1.197087,0,0,1.197087,-79.877937,-59.358897)">
                <path d="M548.475,225.044C542.383,225.884 538.577,228.2 536.542,235.512C536.006,237.438 535.931,237.71 535.977,260.496C535.994,269.031 536.705,270.713 533.516,270.792C525.378,270.996 525.145,270.822 524.572,270.393C523.66,269.71 523.88,269.428 523.853,243.498C523.851,241.499 523.828,220.181 523.863,218.516C523.909,216.328 525.315,216.271 526.492,216.255C534.493,216.143 534.695,216.331 535.207,216.807C536.648,218.149 534.51,223.281 536.456,223.217C537.589,223.18 536.884,222.262 539.101,220.092C543.541,215.749 549.382,215.183 550.479,215.137C555.898,214.908 559.496,215.108 564.596,218.356C565.829,219.142 568.267,221.379 569.468,223.52C573.114,230.019 572.65,230.44 572.691,258.499C572.707,269.289 572.866,270.146 571.543,270.606C571.44,270.642 561.916,271.391 560.959,270.134C560.351,269.336 560.581,267.776 560.456,256.5C560.261,239.013 561.782,232.791 556.864,228.124C553.324,224.764 548.977,225.061 548.475,225.044Z" style="fill:rgb(12,12,12);"/>
            </g>
            <g transform="matrix(1.197087,0,0,1.197087,-79.877937,-59.358897)">
                <path d="M793.348,223.247C793.734,222.723 797.888,213.996 811.537,215.179C818.016,215.741 828.449,220.373 828.764,236.488C828.809,238.786 828.797,268.309 828.787,268.52C828.654,271.289 826.598,270.822 821.495,270.786C821.252,270.785 818.673,270.767 818.455,270.72C816.923,270.393 816.973,270.059 816.939,268.478C816.746,259.789 817.31,237.612 816.559,234.487C815.416,229.733 813.781,227.184 808.517,225.456C802.564,223.501 794.2,227.646 792.895,235.568C791.931,241.421 792.746,267.731 792.325,269.455C791.969,270.909 790.767,270.814 783.498,270.751C780.042,270.721 780.515,269.37 780.527,265.501C780.648,226.874 780.226,217.87 780.99,216.918C781.624,216.128 784.076,216.254 788.498,216.268C790.91,216.276 792.65,215.856 792.144,220.528C792.11,220.844 792.026,221.154 791.989,221.47C791.89,222.289 791.902,222.344 791.917,222.419C791.944,222.548 792.013,222.474 793.348,223.247Z" style="fill:url(#_Linear6);"/>
            </g>
            <g transform="matrix(1,0,0,1,-68.627711,-8.978803)">
                <path d="M253.854,157.384C253.952,157.135 253.734,156.831 253.832,156.583C253.971,156.231 255.738,154.309 257.449,151.47C257.89,150.74 262.04,144.565 267.871,138.857C271.179,135.619 276.921,131.798 280.127,125.314C281.4,122.739 285.869,110.769 296.578,113.178C300.37,114.031 302.119,117.536 304.521,118.462C305.316,118.768 305.506,118.554 305.877,119.322C306.579,120.773 305.174,120.348 303.051,123.184C296.373,132.104 303.561,141.971 294.061,156.159C293.308,157.283 289.396,161.331 288.244,162.163C278.535,169.177 269.337,167.296 266.31,166.864C264.919,166.665 264.36,166.875 264.451,165.479C264.527,164.308 265.736,165.817 273.619,161.691C291.341,152.415 290.688,137.763 285.555,134.418C281.715,131.916 279.691,132.996 279.237,133.238C278.51,133.626 278.225,133.693 278.623,134.424C278.737,134.632 279.041,134.651 279.242,134.777C279.382,134.865 279.995,134.939 280.172,134.962C280.231,134.969 281.409,135.43 281.516,135.471C284.827,136.766 288.691,143.606 279.67,152.671C277.615,154.735 273.253,157.421 272.662,157.785C271.384,158.573 265.834,161.363 254.572,164.794C249.962,166.198 249.972,166.334 249.579,166.201C249.346,166.122 248.829,165.105 248.906,164.827C249.2,163.763 264.198,157.961 270.582,150.546C270.714,150.393 272.037,148.855 272.009,148.45C271.996,148.262 270.971,147.768 270.623,147.915C269.47,148.403 270.219,149.596 257.431,156.352C256.158,157.024 255.44,157.533 254.492,157.52C254.274,157.517 254.071,157.387 253.854,157.384Z" style="fill:rgb(250,247,242);"/>
            </g>
            <g transform="matrix(1.197087,0,0,1.197087,-79.877937,-59.358897)">
                <path d="M862.501,225.908C862.264,225.911 859.536,225.938 859.536,225.938C857.77,226.327 857.816,226.708 857.808,228.502C857.799,230.66 857.703,253.082 857.822,255.478C858.279,264.64 867.64,260.738 869.201,261.887C869.74,262.284 869.816,263.321 869.826,263.456C869.833,263.56 869.95,268.848 869.716,269.579C869.344,270.741 868.25,270.844 863.488,271.396C858.234,272.005 849.29,270.518 846.798,262.405C845.101,256.884 846.089,243.305 845.844,228.486C845.81,226.388 845.573,226.05 843.473,225.912C838.532,225.588 837.753,226.442 837.259,224.573C837.142,224.13 837.083,218.071 837.296,217.415C838.02,215.187 844.125,217.129 845.52,215.513C846.303,214.606 845.37,203.346 846.16,202.278C846.815,201.393 846.974,201.278 854.502,201.271C854.722,201.271 856.649,201.27 857.205,201.797C858.061,202.611 857.74,205.613 857.799,213.506C857.816,215.764 858.055,216.244 860.502,216.247C865.512,216.253 868.509,216 869.294,216.722C869.801,217.189 869.846,218.331 869.852,218.478C870.095,224.596 869.74,224.974 869.362,225.378C868.707,226.076 866.302,225.917 862.501,225.908Z" style="fill:url(#_Linear7);"/>
            </g>
            <g transform="matrix(1.197087,0,0,1.197087,-79.877937,-59.358897)">
                <path d="M395.839,329.487C395.806,321.323 395.832,321.339 395.83,317.501C395.828,313.299 395.78,309.275 395.97,308.667C396.211,307.898 396.83,307.339 404.499,307.526C418.672,307.871 417.754,321.624 416.389,325.464C413.299,334.159 405.875,333.485 400.503,333.4C398.496,333.368 395.935,333.823 395.844,331.472C395.819,330.811 395.864,330.149 395.839,329.487Z" style="fill:rgb(126,112,97);"/>
            </g>
            <g transform="matrix(1.573495,0,0,1.573495,-416.409865,-105.824389)">
                <path d="M932.755,218.167C932.827,218.015 932.633,217.382 933.536,216.537C933.62,216.459 934.281,216.787 944.573,207.574C945.036,207.159 950.044,202.676 950.337,202.358C952.961,199.512 949.658,200.468 949.505,200.519C949.326,200.58 937.744,209.563 934.108,213.06C932.151,214.943 932.039,214.964 931.802,215.008C931.775,215.013 930.919,214.442 930.911,214.414C930.8,214.019 931.205,212.631 931.249,212.48C932.352,208.697 932.862,204.347 937.1,200.102C941.335,195.859 946.304,193.26 956.494,193.09C959.717,193.037 959.338,194.28 958.964,196.582C957.42,206.091 954.469,209.731 953.711,210.665C947.353,218.507 940.944,218.412 934.514,218.413C933.297,218.413 933.327,218.247 932.755,218.167Z" style="fill:rgb(69,84,70);"/>
            </g>
            <path d="M202.542,317.569C202.285,317.384 201.912,317.414 201.655,317.229C200.765,316.588 195.594,297.836 195.414,294.502C195.318,292.713 195.349,292.706 195.272,292.554C195.16,292.333 194.931,292.108 194.684,292.101C192.959,292.053 193.273,292.794 193.395,294.512C193.719,299.075 195.723,307.288 195.991,308.385C197.582,314.906 199.994,318.687 200.51,319.496C202.725,323.314 202.238,323.546 204.129,326.707C205.021,328.2 205.724,329.807 205.846,330.085C205.355,330.22 204.97,330.63 204.479,330.765C203.639,330.997 202.676,330.456 202.538,330.379C202.147,330.159 201.857,329.787 201.467,329.567C201.675,329.058 202.518,329.009 202.726,328.5C202.931,327.996 202.274,328.173 199.654,322.438C197.226,317.122 192.534,316.915 189.262,305.578C185.588,292.845 191.955,281.094 192.596,280.67C193.677,279.954 193.544,280.992 198.344,288.598C206.65,301.759 204.164,310.152 203.293,315.45C203.083,316.727 202.873,316.636 202.542,317.569Z" style="fill:rgb(69,84,70);"/>
            <g transform="matrix(1.197087,0,0,1.197087,-79.877937,-59.358897)">
                <path d="M484.51,262.856C482.357,262.812 479.938,263.034 476.506,260.493C473.516,258.28 472.912,251.302 477.556,248.581C478.675,247.925 481.668,246.172 493.508,245.704C493.802,245.693 496.618,245.582 497.178,245.93C497.192,245.939 498.128,245.74 497.861,251.523C497.825,252.304 497.618,256.789 493.202,260.113C490.117,262.436 485.237,262.802 484.51,262.856Z" style="fill:rgb(249,246,242);"/>
            </g>
            <g transform="matrix(1.197087,0,0,1.197087,-79.877937,-59.358897)">
                <path d="M901.511,262.865C899.238,262.808 896.525,262.934 893.457,260.545C890.648,258.358 888.488,248.789 899.561,246.867C900.85,246.643 912.906,245.088 914.245,245.886C915.384,246.566 915.745,253.828 912.71,257.651C909.075,262.232 904.513,262.662 901.511,262.865Z" style="fill:rgb(250,246,241);"/>
            </g>
            <g transform="matrix(1.197087,0,0,1.197087,-79.877937,-59.358897)">
                <path d="M606.503,262.872C605.944,262.847 601.87,262.672 599.727,261.147C594.545,257.459 595.714,249.116 603.418,247.211C604.518,246.939 608.278,246.01 617.504,245.694C620.957,245.575 620.35,247.046 620.279,250.491C620.203,254.128 619.45,256.46 616.931,258.928C613.036,262.744 608.508,262.777 606.503,262.872Z" style="fill:rgb(249,246,242);"/>
            </g>
            <g transform="matrix(1.197087,0,0,1.197087,-79.877937,-59.358897)">
                <path d="M748.39,224.974C749.641,225.476 755.634,226.969 757.438,235.511C758.227,239.25 755.624,238.563 751.5,238.548C742.999,238.518 743.012,238.507 734.5,238.56C732.409,238.573 730.562,238.921 731.175,235.427C731.865,231.494 735.887,223.571 746.474,224.713C746.474,224.713 748.236,224.953 748.39,224.974Z" style="fill:rgb(250,247,242);"/>
            </g>
            <g transform="matrix(1.197087,0,0,1.197087,-79.877937,-59.358897)">
                <path d="M464.93,321.499C464.948,311.346 464.826,309.303 465.264,308.346C465.425,307.996 467.194,306.761 469.595,308.395C469.916,308.613 479.385,323.261 480.195,324.823C480.787,325.965 480.464,326.429 481.502,326.488C482.813,326.563 482.215,323.883 482.157,322.485C482.107,321.281 482.129,309.811 482.153,309.477C482.342,306.789 484.871,307.586 485.244,307.842C486.246,308.528 486.016,312.513 486.016,312.526C486.017,313.484 486.036,323.739 486.021,324.5C485.879,331.913 486.394,333.008 484.468,333.321C481.241,333.846 480.076,330.792 480.061,330.769C479.401,329.771 474.222,321.942 471.884,318.246C470.657,316.306 471.082,316.048 469.575,314.331C469.472,314.213 469.473,313.928 469.317,313.939C468.972,313.962 468.59,314.126 468.393,314.41C468.132,314.788 468.552,317.859 468.59,318.498C468.663,319.746 468.596,331.493 468.594,331.511C468.308,333.712 466.213,333.441 465.691,333.151C464.766,332.636 464.924,331.26 464.93,321.499Z" style="fill:rgb(126,112,97);"/>
            </g>
            <g transform="matrix(1.197087,0,0,1.197087,-79.877937,-59.358897)">
                <path d="M837.507,314.903C837.236,315.116 836.964,315.329 836.692,315.542C836.738,316.178 837.043,320.393 836.934,323.503C836.931,323.586 836.929,331.398 836.908,331.56C836.551,334.331 833.677,333.275 833.373,332.577C833.178,332.13 833.115,332.118 833.117,312.494C833.118,310.059 832.539,307.409 835.5,307.509C838.577,307.613 838.446,309.677 843.332,316.612C845.394,319.54 849.305,326.318 849.521,326.451C849.786,326.616 850.195,326.61 850.457,326.441C851.005,326.085 850.589,322.198 850.574,321.496C850.553,320.537 850.38,312.45 850.542,309.503C850.681,306.977 854.02,306.818 854.145,309.535C854.218,311.13 854.137,311.121 854.154,329.49C854.157,332.395 854.408,333.518 851.507,333.311C849.979,333.201 849.96,333.061 849.033,331.851C848.194,330.755 848.223,330.736 839.659,317.375C838.163,315.04 838.474,314.834 838.259,314.728C838.028,314.614 837.738,315.017 837.507,314.903Z" style="fill:rgb(126,112,97);"/>
            </g>
            <g transform="matrix(1.197087,0,0,1.197087,-79.877937,-59.358897)">
                <path d="M549.342,320.563C551.791,327.595 554.28,332.147 553.169,333.061C553.128,333.095 550.493,334.347 549.404,331.54C548.388,328.917 548.62,326.758 545.494,326.728C538.191,326.657 538.178,326.594 537.593,326.832C534.963,327.903 535.893,333.412 532.506,333.388C530.749,333.376 531.108,331.629 531.146,331.443C531.161,331.371 539.155,309.617 539.762,308.654C540.79,307.02 544.425,307.358 545.036,308.743C545.459,309.702 545.619,310.771 549.342,320.563Z" style="fill:rgb(126,112,97);"/>
            </g>
            <g transform="matrix(1.197087,0,0,1.197087,-79.877937,-59.358897)">
                <path d="M612.651,321.391C613.972,323.615 613.853,323.669 615.267,325.824C615.717,326.511 615.725,326.636 616.526,326.56C617.078,326.508 616.94,326.303 616.901,325.765C616.799,324.365 616.636,309.491 616.883,308.635C617.248,307.373 620.172,306.708 620.407,309.505C620.548,311.179 620.347,311.169 620.379,330.497C620.38,331.245 620.745,333.67 617.52,333.287C615.168,333.008 613.852,329.348 609.733,323.347C607.324,319.837 604.801,315.41 604.704,315.252C604.123,314.3 603.763,314.266 603.068,315.128C602.598,315.711 603.079,315.822 603.069,324.493C603.061,330.719 603.495,333.215 601.491,333.403C599.45,333.595 599.33,331.743 599.315,331.513C599.205,329.814 599.317,314.028 599.328,312.507C599.33,312.189 599.353,308.961 599.574,308.536C599.97,307.775 602.985,306.338 605.126,309.748C605.716,310.687 610.01,317.527 612.651,321.391Z" style="fill:rgb(126,112,97);"/>
            </g>
            <g transform="matrix(1.197087,0,0,1.197087,-79.877937,-59.358897)">
                <path d="M875.039,315.362C877.206,308.953 877.525,307.376 880.496,307.573C883.015,307.739 883.343,310.268 884.23,312.611C891.073,330.684 891.57,331.845 891.477,332.494C891.352,333.37 888.532,334.44 887.341,331.562C886.013,328.357 886.468,326.723 883.501,326.666C876.585,326.532 875.901,326.797 875.288,327.035C873.158,327.862 873.814,333.262 870.503,333.359C868.413,333.42 868.728,332.443 869.434,330.477C869.87,329.263 873.063,320.368 875.039,315.362Z" style="fill:rgb(126,112,97);"/>
            </g>
            <g transform="matrix(1.197087,0,0,1.197087,-79.877937,-59.358897)">
                <path d="M761.509,319.928C763.46,320.13 764.69,319.728 764.728,322.495C764.738,323.217 764.829,329.801 764.714,331.517C764.585,333.426 762.758,333.939 761.517,332.486C761.342,332.282 761.398,331.93 761.207,331.741C761.029,331.564 760.752,331.488 760.501,331.48C759.784,331.46 759.84,331.615 759.268,332.051C754.665,335.553 744.511,334.253 742.184,325.574C740.781,320.34 741.657,318.274 742.06,316.384C743.82,308.144 751.901,305.508 758.642,308.115C762.848,309.742 765.529,315.027 762.488,315.431C760.344,315.716 759.642,313.831 759.46,313.529C758.081,311.243 754.726,310.367 752.549,310.747C746.775,311.755 746.134,316.069 745.544,318.509C744.585,322.475 746.302,329.625 752.506,330.448C759.244,331.341 762.749,323.938 759.577,323.244C759.544,323.237 759.544,323.24 756.516,323.197C756.341,323.195 754.97,323.176 754.424,322.548C753.54,321.532 754.395,320.624 754.507,320.505C755.246,319.72 757.98,319.916 761.509,319.928Z" style="fill:rgb(126,112,97);"/>
            </g>
            <g transform="matrix(1.197087,0,0,1.197087,-79.877937,-59.358897)">
                <path d="M675.053,313.5C675.059,312.316 674.99,309.142 675.318,308.394C675.667,307.596 677.387,307.355 678.197,307.931C679.278,308.698 678.79,313.954 678.882,316.492C678.887,316.641 678.927,317.744 679.678,318.183C680.371,318.588 690.303,318.695 691.081,318.067C692.096,317.247 691.569,312.139 691.694,309.515C691.801,307.281 694.012,307.216 694.873,308.108C695.571,308.83 695.448,310.15 695.451,310.5C695.469,312.18 695.624,327.255 695.385,331.493C695.269,333.552 693.121,333.842 692.161,332.811C691.049,331.617 692.21,323.582 691.373,322.575C690.551,321.587 688.374,321.82 682.501,321.885C680.191,321.91 679.449,321.307 678.896,323.544C678.846,323.745 678.872,331.359 678.845,331.555C678.492,334.1 675.321,333.893 675.099,331.563C675.093,331.499 674.966,317.722 675.053,313.5Z" style="fill:rgb(126,112,97);"/>
            </g>
            <g transform="matrix(1.197087,0,0,1.197087,-79.877937,-59.358897)">
                <path d="M411.612,314.428C411.91,315.079 413.238,316.746 413.089,321.459C412.896,327.581 408.829,329.582 406.566,329.895C406.031,329.969 400.711,330.704 399.849,329.309C399.268,328.369 399.416,328.278 399.511,315.5C399.521,314.2 399.279,311.937 400.254,311.207C400.762,310.827 407.079,309.924 410.226,312.772C410.226,312.772 411.501,314.296 411.612,314.428Z" style="fill:rgb(250,247,243);"/>
            </g>
            <g transform="matrix(1.197087,0,0,1.197087,-79.877937,-59.358897)">
                <path d="M803.961,325.489C804.066,328.491 803.494,330.126 806.504,330.148C816.584,330.222 816.724,329.901 817.439,330.564C818.062,331.143 818.249,333.082 816.477,333.368C816.254,333.404 802.669,333.533 801.555,333.291C799.808,332.911 800.226,331.988 800.211,319.502C800.199,308.755 799.977,308.026 801.535,307.642C802.543,307.394 802.539,307.454 814.5,307.472C814.71,307.473 816.553,307.475 817.08,307.961C817.555,308.398 818.167,310.664 815.534,310.835C815.026,310.868 805.892,310.811 805.58,310.894C803.899,311.343 804.051,311.748 804.04,313.489C804.02,316.623 803.438,318.398 806.501,318.469C811.643,318.589 815.292,318.218 815.809,319.323C816.926,321.711 813.8,321.827 813.529,321.837C812.645,321.87 805.632,321.857 805.54,321.881C804.376,322.188 804.265,322.243 804.05,323.414C804.02,323.578 804.043,323.568 803.961,325.489Z" style="fill:rgb(126,112,97);"/>
            </g>
            <g transform="matrix(1.197087,0,0,1.197087,-79.877937,-59.358897)">
                <path d="M431.831,324.499C431.837,312.836 431.788,310.371 431.849,309.545C432.027,307.174 434.063,307.556 437.5,307.512C447.565,307.384 447.636,307.249 448.337,307.759C449.437,308.559 448.852,310.078 448.434,310.415C447.431,311.222 438.162,310.569 436.693,310.979C436.257,311.1 435.024,311.444 435.485,316.501C435.501,316.673 435.623,318.008 436.553,318.37C437.376,318.691 444.076,318.37 445.504,318.453C448.817,318.646 447.483,321.038 447.253,321.266C446.048,322.463 438.336,321.336 436.297,322.231C435.033,322.786 435.508,328.876 435.781,329.346C436.533,330.641 436.97,330.004 446.517,330.111C450.439,330.155 448.694,332.922 448.287,333.137C447.839,333.373 444.801,333.404 444.498,333.408C435.772,333.497 433.118,333.717 432.217,332.712C431.744,332.184 431.822,331.037 431.831,324.499Z" style="fill:rgb(126,112,97);"/>
            </g>
            <g transform="matrix(1.197087,0,0,1.197087,-79.877937,-59.358897)">
                <path d="M717.812,325.488C717.468,322.492 717.217,322.541 714.829,318.311C710.185,310.083 710.054,310.163 709.724,309.411C708.792,307.284 711.293,307.496 711.5,307.514C713.223,307.66 713.872,308.956 714.655,310.41C718.541,317.618 718.392,317.691 718.792,318.279C718.866,318.388 719.515,319.342 720.259,319.044C720.505,318.945 722.091,315.822 722.723,314.612C725.87,308.588 726.263,307.935 727.53,307.656C729.906,307.135 730.115,308.288 730.155,308.505C730.219,308.859 729.401,310.259 729.317,310.403C725.712,316.571 722.449,322.312 722.388,322.439C721.12,325.071 722.007,329.567 721.753,331.533C721.456,333.828 719.021,333.295 718.688,333.135C717.602,332.612 717.82,330.723 717.812,325.488Z" style="fill:rgb(126,112,97);"/>
            </g>
            <g transform="matrix(1.197087,0,0,1.197087,-79.877937,-59.358897)">
                <path d="M508.63,321.499C508.658,313.029 508.915,311.603 507.375,310.992C507.151,310.903 502.756,310.908 502.452,310.882C499.268,310.607 500.569,308.211 500.895,307.956C501.411,307.551 504.21,307.531 504.5,307.529C505.62,307.521 517.241,307.439 518.501,307.478C521.857,307.582 520.608,310.081 520.338,310.342C519.566,311.088 515.613,310.812 514.529,310.85C514.372,310.856 513.164,310.898 512.738,311.629C512.157,312.623 512.524,329.41 512.395,331.494C512.277,333.412 510.49,333.553 509.617,333.205C508.38,332.712 508.65,331.4 508.63,321.499Z" style="fill:rgb(126,112,97);"/>
            </g>
            <g transform="matrix(1.197087,0,0,1.197087,-79.877937,-59.358897)">
                <path d="M572.121,321.494C572.127,327.723 571.8,329.456 573.329,329.94C575.011,330.473 583.312,329.609 584.356,330.631C584.465,330.737 586.089,333.365 582.497,333.429C569.217,333.666 568.876,333.572 568.433,332.535C568.294,332.21 568.16,332.205 568.193,313.499C568.198,310.507 567.867,307.985 569.526,307.601C572.021,307.023 572.103,309.267 572.113,309.524C572.125,309.867 572.121,319.472 572.121,321.494Z" style="fill:rgb(126,112,97);"/>
            </g>
            <g transform="matrix(1.197087,0,0,1.197087,-79.877937,-59.358897)">
                <path d="M780.06,317.503C780.059,310.096 780.023,310.098 780.066,309.455C780.082,309.21 780.221,307.134 782.488,307.561C783.824,307.813 783.747,308.109 783.891,309.454C783.941,309.925 783.904,331.42 783.895,331.54C783.697,334.123 780.255,334.096 779.993,331.469C779.877,330.308 779.957,330.322 780.053,326.497C780.165,321.998 779.967,322.01 780.06,317.503Z" style="fill:rgb(126,112,97);"/>
            </g>
            <g transform="matrix(1.197087,0,0,1.197087,-79.877937,-59.358897)">
                <path d="M636.849,329.508C636.912,309.344 636.766,309.33 636.946,308.636C637.216,307.596 640.464,306.528 640.662,309.489C640.701,310.064 640.694,331.358 640.675,331.52C640.423,333.597 638.136,333.822 637.218,332.73C636.704,332.118 636.94,332.023 636.849,329.508Z" style="fill:rgb(126,112,97);"/>
            </g>
            <path d="M144.216,240.38C143.728,233.931 144.561,231.049 149.446,219.474C150.486,217.01 153.325,211.828 153.486,211.488C153.966,210.478 154.204,210.516 154.375,210.291C154.507,210.119 154.478,209.8 154.677,209.714C154.917,209.611 155.191,209.827 155.452,209.827C155.65,209.827 155.893,209.579 156.035,209.717C156.674,210.342 155.35,210.959 150.596,223.53C150.354,224.169 146.218,236.427 146.235,238.578C146.236,238.707 146.254,238.696 146.488,240.177C145.731,240.245 144.973,240.313 144.216,240.38Z" style="fill:rgb(244,244,239);"/>
            <path d="M129.69,251.561C129.232,252.31 128.774,253.059 128.315,253.807C127.993,253.662 125.362,253.793 116.389,243.592C112.986,239.723 108.776,234.344 108.208,233.665C107.757,233.126 107.783,233.133 107.342,232.562C107.246,232.439 106.321,231.24 106.748,230.7C106.826,230.601 107.294,230.01 108.324,230.781C108.41,230.846 111.34,234.09 111.601,234.379C119.218,242.815 119.358,242.667 127.301,250.784C127.451,250.937 127.517,251.185 127.709,251.279C127.853,251.349 127.855,251.3 129.69,251.561Z" style="fill:rgb(245,245,241);"/>
            <path d="M167.489,284.785L166.447,285.501C165.842,283.671 165.085,283.061 164.388,272.509C164.33,271.633 164.216,269.91 164.848,261.554C164.852,261.498 165.856,254.84 165.93,254.75C166.039,254.618 167.178,254.546 167.301,254.663C168.049,255.37 166.084,266.806 167.403,278.509C167.446,278.896 167.927,283.163 167.902,283.353C167.837,283.846 167.554,284.293 167.489,284.785Z" style="fill:rgb(237,237,231);"/>
            <path d="M202.542,317.569C201.865,318.211 201.187,318.854 200.51,319.496C199.994,318.687 197.582,314.906 195.991,308.385C195.723,307.288 193.719,299.075 193.395,294.512C193.273,292.794 192.959,292.053 194.684,292.101C194.931,292.108 195.16,292.333 195.272,292.554C195.349,292.706 195.318,292.713 195.414,294.502C195.594,297.836 200.765,316.588 201.655,317.229C201.912,317.414 202.285,317.384 202.542,317.569Z" style="fill:rgb(241,241,236);"/>
            <g transform="matrix(1.197087,0,0,1.197087,-79.877937,-59.358897)">
                <path d="M545.179,319.601C545.302,320.242 545.682,320.816 545.806,321.458C545.841,321.639 546.149,323.24 544.475,323.34C538.888,323.676 538.666,322.953 538.525,322.494C538.304,321.776 541.76,312.838 541.764,312.836C541.794,312.817 543.015,312.869 543.037,312.89C543.453,313.271 543.056,313.452 545.179,319.601Z" style="fill:rgb(249,247,244);"/>
            </g>
            <g transform="matrix(1.197087,0,0,1.197087,-79.877937,-59.358897)">
                <path d="M878.349,316.437C879.247,313.594 879.222,313.592 879.302,313.346C879.63,312.336 880.071,312.324 880.737,313.133C881.387,313.922 881.215,314.004 881.357,314.568C881.615,315.587 883.673,320.933 883.768,321.475C883.791,321.609 883.977,322.682 883.283,323.102C882.856,323.361 877.448,323.48 876.856,323.04C876.001,322.403 876.611,321.518 878.349,316.437Z" style="fill:rgb(250,248,245);"/>
            </g>
            <g transform="matrix(0.98271,0,0,1.048961,-63.515894,-16.817475)">
                <path d="M275.636,171.086C276.949,171.277 277.219,170.672 278.739,172.265C279.563,173.129 280.595,174.066 280.762,174.217C284.228,177.363 287.077,178.114 286.454,179.33C286.196,179.834 283.775,179.768 283.612,179.775C280.862,179.905 281.033,180.103 279.4,178.606C278.631,177.901 272.965,173.027 274.473,171.474C274.765,171.173 275.344,171.386 275.636,171.086Z" style="fill:rgb(250,247,241);"/>
            </g>
            <g transform="matrix(1.197087,0,0,1.197087,-79.877937,-59.358897)">
                <path d="M542.63,301.612C543.484,300.834 543.369,300.639 544.476,300.349C547.05,299.672 546.782,301.352 546.749,301.555C546.717,301.756 546.335,302.148 545.209,303.215C541.279,306.938 540.866,304.02 540.952,303.689C540.965,303.639 542.494,301.777 542.63,301.612Z" style="fill:rgb(133,120,105);"/>
            </g>
            <g transform="matrix(1.197087,0,0,1.197087,-79.877937,-59.358897)">
                <path d="M638.713,301.668C639.515,300.893 639.396,300.696 640.479,300.395C640.682,300.338 643.077,299.673 642.842,301.567C642.791,301.979 640.006,304.526 639.59,304.682C639.403,304.753 636.799,305.73 637.41,303.465C637.456,303.294 637.458,303.288 638.713,301.668Z" style="fill:rgb(135,123,109);"/>
            </g>
            <g transform="matrix(1,0,0,1,-67.552194,-8.978803)">
                <path d="M295.476,117.958C295.873,117.969 297.022,118.604 297.175,118.793C298.663,120.627 296.103,123.22 294.254,121.874C291.907,120.166 294.134,117.921 295.476,117.958Z" style="fill:rgb(156,118,61);"/>
            </g>
        </g>
    </g>
    <defs>
        <linearGradient id="_Linear1" x1="0" y1="0" x2="1" y2="0" gradientUnits="userSpaceOnUse" gradientTransform="matrix(468.570695,-296.294916,296.294916,468.570695,841.390412,1084.908658)"><stop offset="0" style="stop-color:rgb(77,54,24);stop-opacity:1"/><stop offset="0.11" style="stop-color:rgb(126,92,45);stop-opacity:1"/><stop offset="0.25" style="stop-color:rgb(140,102,51);stop-opacity:1"/><stop offset="0.48" style="stop-color:rgb(157,122,66);stop-opacity:1"/><stop offset="0.77" style="stop-color:rgb(252,215,132);stop-opacity:1"/><stop offset="1" style="stop-color:rgb(255,249,227);stop-opacity:1"/></linearGradient>
        <linearGradient id="_Linear2" x1="0" y1="0" x2="1" y2="0" gradientUnits="userSpaceOnUse" gradientTransform="matrix(468.570695,-296.294916,296.294916,468.570695,841.390412,1084.908658)"><stop offset="0" style="stop-color:rgb(77,54,24);stop-opacity:1"/><stop offset="0.11" style="stop-color:rgb(126,92,45);stop-opacity:1"/><stop offset="0.25" style="stop-color:rgb(140,102,51);stop-opacity:1"/><stop offset="0.48" style="stop-color:rgb(157,122,66);stop-opacity:1"/><stop offset="0.77" style="stop-color:rgb(252,215,132);stop-opacity:1"/><stop offset="1" style="stop-color:rgb(255,249,227);stop-opacity:1"/></linearGradient>
        <linearGradient id="_Linear3" x1="0" y1="0" x2="1" y2="0.232" gradientUnits="userSpaceOnUse" gradientTransform="matrix(127.336622,-108.346105,80.519747,171.342156,627.166823,280.054993)"><stop offset="0" style="stop-color:rgb(77,54,24);stop-opacity:1"/><stop offset="0.11" style="stop-color:rgb(126,92,45);stop-opacity:1"/><stop offset="0.25" style="stop-color:rgb(140,102,51);stop-opacity:1"/><stop offset="0.48" style="stop-color:rgb(157,122,66);stop-opacity:1"/><stop offset="0.77" style="stop-color:rgb(252,215,132);stop-opacity:1"/><stop offset="1" style="stop-color:rgb(255,249,227);stop-opacity:1"/></linearGradient>
        <linearGradient id="_Linear4" x1="0" y1="0" x2="1" y2="0.216" gradientUnits="userSpaceOnUse" gradientTransform="matrix(97.806509,-81.257114,61.846743,128.502718,863.874658,279.096337)"><stop offset="0" style="stop-color:rgb(77,54,24);stop-opacity:1"/><stop offset="0.11" style="stop-color:rgb(126,92,45);stop-opacity:1"/><stop offset="0.25" style="stop-color:rgb(140,102,51);stop-opacity:1"/><stop offset="0.48" style="stop-color:rgb(157,122,66);stop-opacity:1"/><stop offset="0.77" style="stop-color:rgb(252,215,132);stop-opacity:1"/><stop offset="1" style="stop-color:rgb(255,249,227);stop-opacity:1"/></linearGradient>
        <linearGradient id="_Linear5" x1="0" y1="0" x2="1" y2="0.173" gradientUnits="userSpaceOnUse" gradientTransform="matrix(104.00332,-81.274274,65.76522,128.529856,702.445907,279.151002)"><stop offset="0" style="stop-color:rgb(77,54,24);stop-opacity:1"/><stop offset="0.11" style="stop-color:rgb(126,92,45);stop-opacity:1"/><stop offset="0.25" style="stop-color:rgb(140,102,51);stop-opacity:1"/><stop offset="0.48" style="stop-color:rgb(157,122,66);stop-opacity:1"/><stop offset="0.77" style="stop-color:rgb(252,215,132);stop-opacity:1"/><stop offset="1" style="stop-color:rgb(255,249,227);stop-opacity:1"/></linearGradient>
        <linearGradient id="_Linear6" x1="0" y1="0" x2="1" y2="0.193" gradientUnits="userSpaceOnUse" gradientTransform="matrix(98.839835,-79.400089,62.500154,125.565957,765.064444,277.637956)"><stop offset="0" style="stop-color:rgb(77,54,24);stop-opacity:1"/><stop offset="0.11" style="stop-color:rgb(126,92,45);stop-opacity:1"/><stop offset="0.25" style="stop-color:rgb(140,102,51);stop-opacity:1"/><stop offset="0.48" style="stop-color:rgb(157,122,66);stop-opacity:1"/><stop offset="0.77" style="stop-color:rgb(252,215,132);stop-opacity:1"/><stop offset="1" style="stop-color:rgb(255,249,227);stop-opacity:1"/></linearGradient>
        <linearGradient id="_Linear7" x1="0" y1="0" x2="1" y2="0.484" gradientUnits="userSpaceOnUse" gradientTransform="matrix(67.079741,-100.012293,42.417049,158.162786,826.678775,280.083605)"><stop offset="0" style="stop-color:rgb(77,54,24);stop-opacity:1"/><stop offset="0.11" style="stop-color:rgb(126,92,45);stop-opacity:1"/><stop offset="0.25" style="stop-color:rgb(140,102,51);stop-opacity:1"/><stop offset="0.48" style="stop-color:rgb(157,122,66);stop-opacity:1"/><stop offset="0.77" style="stop-color:rgb(252,215,132);stop-opacity:1"/><stop offset="1" style="stop-color:rgb(255,249,227);stop-opacity:1"/></linearGradient>
    </defs>
</svg>
